PathFileType	4	(X/Y/Z)	S1_rest_fast_right.trc
DataRate	CameraRate	NumFrames	NumMarkers	Units	OrigDataRate	OrigDataStartFrame	OrigNumFrames
250.00	250.00	10	18	mm	250.00	18912	21613
Frame#	Time	c7	r_should	l_should	clavicle	r_upa	r_elb_l	r_elb_m	r_low	r_wri_l	r_wri_m	r_met	l_upa	l_elb_l	l_elb_m	l_low	l_wri_l	l_wri_m	l_met
	X1	Y1	Z1	X2	Y2	Z2	X3	Y3	Z3	X4	Y4	Z4	X5	Y5	Z5	X6	Y6	Z6	X7	Y7	Z7	X8	Y8	Z8	X9	Y9	Z9	X10	Y10	Z10	X11	Y11	Z11	X12	Y12	Z12	X13	Y13	Z13	X14	Y14	Z14	X15	Y15	Z15	X16	Y16	Z16	X17	Y17	Z17	X18	Y18	Z18
18912	75.64400	401.48251	1411.31335	106.09807	438.78821	1366.65698	271.89575	474.08481	1361.37817	-84.52245	557.44214	1313.14209	100.55715	512.01270	1175.71216	330.52173	544.86572	1135.12354	338.68646	561.95111	1073.48987	248.02705	649.93304	1161.41370	296.02164	651.68365	1271.93213	304.42438	680.77478	1248.60205	238.87711	708.63293	1330.22229	322.10703	500.07700	1144.79565	-138.47562	520.35394	1064.03345	-149.70340	446.14044	1026.47839	-88.33793	520.90509	916.39368	-159.50262	606.15717	853.79840	-98.21993	559.42670	826.77618	-147.88350	652.37604	783.95990	-110.50356
18913	75.64800	401.38132	1411.29724	106.07874	438.68851	1366.66406	271.87387	473.97491	1361.37842	-84.55564	557.35327	1313.15613	100.52798	511.92368	1175.70886	330.48483	544.79871	1135.12500	338.65631	561.86060	1073.47412	247.97197	649.87793	1161.43201	296.00308	651.61041	1271.94629	304.41736	680.70856	1248.63562	238.87106	708.57574	1330.26001	322.09750	499.98700	1144.79578	-138.50418	520.26746	1064.03760	-149.73466	446.06549	1026.47656	-88.36671	520.83032	916.39618	-159.53307	606.08466	853.80853	-98.25544	559.34991	826.78235	-147.91925	652.30719	783.97382	-110.52855
18914	75.65200	401.27689	1411.28259	106.05993	438.59155	1366.65918	271.85162	473.87024	1361.37781	-84.59204	557.26569	1313.16418	100.50357	511.82925	1175.70337	330.45154	544.72931	1135.12769	338.62750	561.72614	1073.45679	247.86072	649.82471	1161.44580	295.98639	651.54065	1271.96008	304.41013	680.64178	1248.66443	238.86118	708.51471	1330.28723	322.08698	499.89410	1144.79712	-138.53734	520.18311	1064.04358	-149.75859	445.99927	1026.47876	-88.39148	520.74615	916.39154	-159.56192	606.00848	853.81110	-98.28725	559.27417	826.77838	-147.94910	652.23779	783.98834	-110.55015
18915	75.65600	401.17014	1411.27063	106.02319	438.49777	1366.65063	271.83081	473.77069	1361.37451	-84.62537	557.17664	1313.17371	100.47994	511.74670	1175.70215	330.42944	544.66364	1135.13257	338.60278	561.72406	1073.46204	247.90953	649.77612	1161.46057	295.96811	651.46924	1271.97253	304.40265	680.56775	1248.68079	238.84547	708.44513	1330.30554	322.07080	499.80432	1144.79138	-138.56471	520.10455	1064.04785	-149.79034	445.92847	1026.47803	-88.41965	520.66388	916.38324	-159.59044	605.93579	853.81470	-98.31912	559.16528	826.84778	-148.10504	652.16034	783.98645	-110.59244
18916	75.66000	401.06631	1411.25208	105.98756	438.40475	1366.64233	271.81454	473.68027	1361.36328	-84.65559	557.09180	1313.18677	100.44466	511.66998	1175.69226	330.39828	544.61267	1135.13770	338.57907	561.59802	1073.45032	247.83249	649.72186	1161.46521	295.94965	651.40240	1271.98364	304.39490	680.49188	1248.69641	238.82791	708.38403	1330.32080	322.05695	499.71899	1144.78137	-138.59473	520.02948	1064.03247	-149.80995	445.85471	1026.47437	-88.45249	520.58521	916.37726	-159.61447	605.86658	853.81641	-98.35379	559.04913	826.93622	-148.28923	652.09259	783.98242	-110.62769
18917	75.66400	400.96707	1411.23865	105.95900	438.32083	1366.63013	271.79062	473.59348	1361.35364	-84.68813	557.00635	1313.19556	100.40577	511.59918	1175.68713	330.36441	544.55646	1135.13965	338.54733	561.66187	1073.49280	247.94460	649.66534	1161.46985	295.92169	651.34485	1271.99316	304.38083	680.41553	1248.70776	238.81055	708.32349	1330.31982	322.04608	499.63617	1144.76709	-138.61971	519.94971	1064.02209	-149.82886	445.77383	1026.47095	-88.47820	520.51379	916.36816	-159.63760	605.79700	853.80731	-98.38301	559.03979	826.80518	-148.10579	652.02728	783.98206	-110.66040
18918	75.66800	400.86429	1411.21838	105.92273	438.23862	1366.61108	271.76846	473.50558	1361.33972	-84.71316	556.91705	1313.20044	100.37057	511.53851	1175.68652	330.34039	544.49750	1135.13782	338.51450	561.64429	1073.49646	247.95854	649.60864	1161.46790	295.89050	651.28503	1271.99988	304.37274	680.33673	1248.71826	238.78767	708.25537	1330.31689	322.02380	499.55713	1144.74243	-138.63635	519.80469	1064.07837	-150.00154	445.69846	1026.46167	-88.50047	520.43646	916.35748	-159.66875	605.72638	853.79895	-98.41513	558.98669	826.76831	-148.08060	651.95923	783.98492	-110.68656
18919	75.67200	400.75659	1411.18945	105.90045	438.15756	1366.58960	271.75793	473.41580	1361.32666	-84.74062	556.83148	1313.20264	100.33755	511.48431	1175.68115	330.31644	544.44025	1135.14148	338.49277	561.59271	1073.50122	247.94019	649.54315	1161.46204	295.86401	651.22083	1272.00171	304.36496	680.25507	1248.73157	238.76009	708.19391	1330.30798	322.00906	499.48288	1144.72668	-138.65646	519.64728	1064.15417	-150.20261	445.61349	1026.45654	-88.53223	520.36005	916.33923	-159.69923	605.65198	853.78992	-98.44523	558.91711	826.75110	-148.09680	651.88721	783.97290	-110.71824
18920	75.67600	400.65451	1411.18115	105.88271	438.07999	1366.57361	271.73886	473.32864	1361.32031	-84.77193	556.74396	1313.20435	100.30832	511.43063	1175.68213	330.29132	544.38660	1135.14453	338.47327	561.48291	1073.48022	247.84531	649.47192	1161.46887	295.83643	651.15289	1272.00342	304.35245	680.17316	1248.74219	238.73335	708.12390	1330.30298	321.98203	499.40591	1144.72217	-138.68074	519.68323	1064.02490	-149.97754	445.52676	1026.45435	-88.56229	520.28149	916.33008	-159.72104	605.57300	853.77924	-98.47667	558.84180	826.73767	-148.11397	651.80811	783.95990	-110.76297
18921	75.68000	400.55884	1411.17175	105.85819	438.00623	1366.56494	271.72693	473.23615	1361.31909	-84.80926	556.66376	1313.20996	100.28220	511.37674	1175.68103	330.26285	544.33417	1135.14404	338.44943	561.34442	1073.45325	247.73755	649.40399	1161.47668	295.80194	651.08746	1272.00806	304.33392	680.08173	1248.76270	238.69862	708.05261	1330.29846	321.94183	499.32294	1144.71741	-138.70825	519.62946	1063.99390	-149.94165	445.43353	1026.45789	-88.59137	520.20465	916.32318	-159.75108	605.49280	853.77002	-98.50594	558.76685	826.72620	-148.13979	651.72809	783.95630	-110.79829
